<?xml version="1.0" standalone="no"?>
<!DOCTYPE svg PUBLIC "-//W3C//DTD SVG 20010904//EN"
 "http://www.w3.org/TR/2001/REC-SVG-20010904/DTD/svg10.dtd">
<svg version="1.0" xmlns="http://www.w3.org/2000/svg"
 width="332.000000pt" height="312.000000pt" viewBox="0 0 332.000000 312.000000"
 preserveAspectRatio="xMidYMid meet">

<g transform="translate(0.000000,312.000000) scale(0.100000,-0.100000)"
fill="#ffffff" fill-opacity="1" stroke="none">
<!-- <path d="M0 1560 l0 -1560 1660 0 1660 0 0 1560 0 1560 -1660 0 -1660 0 0
-1560z m1800 1019 c271 -43 519 -195 675 -414 59 -82 130 -233 156 -331 30
-112 37 -319 15 -437 -56 -296 -227 -540 -486 -693 -326 -192 -753 -180 -1071
32 -185 123 -339 328 -404 540 -166 543 139 1111 685 1274 129 38 301 50 430
29z"/> -->
<path d="M1510 2539 c-289 -37 -574 -239 -719 -510 -138 -259 -145 -605 -17
-868 117 -241 322 -420 581 -508 l110 -37 180 0 c168 -1 186 1 265 25 175 55
287 119 407 232 133 127 227 283 275 461 19 69 23 106 22 246 0 140 -3 176
-22 240 -46 156 -98 258 -188 370 -213 264 -546 394 -894 349z m-35 -721 c56
-57 110 -115 119 -130 17 -25 17 -27 -3 -47 -12 -12 -26 -21 -32 -21 -6 0 -47
35 -90 77 l-79 76 0 -251 0 -252 -25 -12 c-19 -8 -28 -8 -40 2 -13 11 -15 57
-15 330 0 174 3 320 7 323 3 4 17 7 31 7 18 0 53 -28 127 -102z m493 -222 c2
-326 0 -346 -36 -346 -8 0 -68 53 -134 117 -93 93 -118 123 -118 144 0 30 26
45 59 34 10 -3 46 -35 80 -70 35 -36 65 -65 67 -65 2 0 4 109 4 243 0 260 2
271 50 265 l25 -3 3 -319z"/>
</g>
</svg>
